<?xml version="1.0" encoding="UTF-8"?>
<svg id="Camada_1" xmlns="http://www.w3.org/2000/svg" viewBox="0 0 119.58 63.23">
  <defs>
    <style>
      .cls-1, .cls-2 {
        fill: #e30613;
      }

      .cls-2 {
        fill-rule: evenodd;
      }
    </style>
  </defs>
  <g>
    <g>
      <path class="cls-1" d="M12.27,61.47c-.68.58-1.45,1.02-2.32,1.31-.87.29-1.78.44-2.72.44s-1.83-.15-2.7-.44-1.64-.72-2.31-1.28c-.67-.56-1.21-1.25-1.61-2.06-.4-.81-.6-1.74-.6-2.78s.21-1.97.62-2.77c.41-.81.96-1.48,1.63-2.04.68-.55,1.45-.97,2.32-1.26.87-.28,1.76-.43,2.68-.43s1.78.13,2.63.39c.85.26,1.62.64,2.3,1.15l-1.63,1.9c-.46-.32-.97-.56-1.55-.72-.58-.17-1.16-.25-1.74-.25s-1.18.08-1.73.25c-.55.17-1.05.41-1.49.75-.44.33-.79.75-1.05,1.27-.26.51-.39,1.12-.39,1.81s.13,1.29.4,1.8c.27.51.62.92,1.07,1.26.44.33.94.58,1.5.75.56.17,1.13.25,1.72.25.92,0,1.78-.21,2.58-.64v-1.97h-1.26l-1.04-2.3h4.71v5.61Z"/>
      <path class="cls-1" d="M26.83,59.15c.14.25.3.45.47.59.17.14.35.25.54.32.19.07.38.12.56.14.18.02.34.04.49.04h.85v2.61h-1.07c-.32,0-.63-.02-.94-.05-.31-.03-.61-.11-.91-.24-.3-.13-.59-.32-.88-.58-.28-.26-.57-.62-.85-1.08l-1.89-3.08h-.17c-.47,0-.87.01-1.2.04-.32.02-.61.07-.85.13-.24.06-.47.14-.69.23s-.45.19-.7.32v4.31h-2.49v-12.27h7.91c.57,0,1.09.09,1.55.27.47.18.87.44,1.22.77.35.33.61.72.81,1.18.19.45.28.95.28,1.48,0,.95-.24,1.72-.73,2.3-.49.59-1.18,1.01-2.08,1.28l.76,1.28ZM25.03,55.39c.36,0,.68-.1.96-.3.28-.2.41-.49.41-.89,0-.27-.05-.48-.16-.64-.11-.16-.25-.28-.41-.36-.17-.08-.36-.13-.58-.15-.22-.02-.44-.04-.64-.04h-5v3.08c.47-.27,1-.45,1.57-.56.58-.1,1.2-.15,1.86-.15h1.99Z"/>
      <path class="cls-1" d="M37.42,50.3h2.63l6.63,12.55h-2.68l-.97-1.85h-1.47c-.76,0-1.51.06-2.25.19-.74.13-1.42.28-2.03.46-.61.18-1.12.37-1.54.57-.42.2-.67.36-.77.49l-.07.14h-2.56l5.87-11.01-.81-1.54ZM41.87,58.77l-2.39-4.55-2.91,5.61c.39-.2,1-.43,1.82-.69.82-.25,1.87-.38,3.15-.38h.33Z"/>
      <path class="cls-1" d="M50.02,62.85v-12.27h7.79c.58,0,1.13.09,1.62.27.5.18.92.44,1.27.78.35.34.62.75.82,1.23.2.48.3,1.01.3,1.6,0,1.23-.39,2.2-1.17,2.9-.78.7-1.87,1.05-3.26,1.05h-1.09c-.57,0-1.04.01-1.41.04s-.69.06-.97.11c-.28.05-.52.12-.75.21-.22.1-.47.21-.73.36v3.72h-2.42ZM52.44,56.69c.54-.32,1.14-.51,1.8-.59.66-.08,1.35-.12,2.06-.12h1.09c.58,0,1.05-.09,1.41-.27.36-.18.53-.6.53-1.27,0-.3-.05-.54-.17-.73-.11-.19-.26-.34-.44-.44-.18-.1-.39-.17-.62-.2-.23-.03-.47-.05-.72-.05h-4.95v3.67Z"/>
      <path class="cls-1" d="M66.08,62.85v-12.27h2.42v12.27h-2.42Z"/>
      <path class="cls-1" d="M79.63,63.23c-.85,0-1.64-.1-2.36-.31-.72-.2-1.34-.52-1.87-.94-.53-.42-.94-.96-1.23-1.61-.29-.66-.44-1.43-.44-2.33v-7.46h2.44v7.46c0,.52.08.96.25,1.3.17.35.4.63.71.84.31.21.67.36,1.1.45.43.09.9.13,1.42.13s1-.04,1.42-.13c.43-.09.79-.24,1.1-.45.31-.21.54-.49.71-.84.17-.35.25-.78.25-1.3v-7.46h2.44v7.46c0,.9-.15,1.68-.44,2.33-.29.66-.7,1.19-1.23,1.61-.53.42-1.15.73-1.87.94-.72.21-1.5.31-2.36.31h-.05Z"/>
      <path class="cls-1" d="M91.85,50.58l7.41,8.53v-8.53h2.44v12.27h-2.44l-6.82-7.98v7.98h-2.44v-10.44l-1.21-1.82h3.06Z"/>
      <path class="cls-1" d="M110.32,50.3h2.63l6.63,12.55h-2.68l-.97-1.85h-1.47c-.76,0-1.51.06-2.25.19-.74.13-1.42.28-2.03.46-.61.18-1.12.37-1.54.57-.42.2-.67.36-.77.49l-.07.14h-2.56l5.87-11.01-.81-1.54ZM114.77,58.77l-2.39-4.55-2.91,5.61c.39-.2,1-.43,1.82-.69.82-.25,1.87-.38,3.15-.38h.33Z"/>
    </g>
    <polygon class="cls-1" points="79.36 49.34 77.76 52.35 80.34 52.35 81.9 49.34 79.36 49.34"/>
  </g>
  <g>
    <path class="cls-1" d="M17.84,44.64h4.75v1.52h-6.24v-7.57h5.96v1.5h-4.47v1.84c.33-.19.7-.32,1.1-.36.4-.05.83-.07,1.26-.07h1.11v1.5h-1.11c-.35,0-.64,0-.87.02-.23.01-.43.04-.59.07-.17.03-.32.07-.45.13-.14.06-.29.13-.45.22v1.2Z"/>
    <path class="cls-1" d="M26.19,46.16h-2.06l3.21-4-2.79-3.56h2.06l1.78,2.28,1.83-2.28h2l-2.83,3.55,3.16,4.02h-2.05l-2.15-2.72-2.16,2.72Z"/>
    <path class="cls-1" d="M37.69,40.1v6.06h-1.51v-6.06h-2.75v-1.5h7.1v1.5h-2.85Z"/>
    <path class="cls-1" d="M42.88,46.16v-7.57h1.49v7.57h-1.49Z"/>
    <path class="cls-1" d="M48.81,38.59l4.57,5.26v-5.26h1.51v7.57h-1.51l-4.21-4.92v4.92h-1.5v-6.44l-.75-1.13h1.88Z"/>
    <path class="cls-1" d="M61.05,40.1v6.06h-1.51v-6.06h-2.75v-1.5h7.1v1.5h-2.85Z"/>
    <path class="cls-1" d="M74.46,42.3c0,.64-.13,1.22-.38,1.72-.25.51-.59.93-1,1.29-.41.35-.89.62-1.43.8-.54.18-1.1.28-1.68.28s-1.13-.09-1.67-.27c-.54-.18-1.01-.44-1.43-.79-.41-.35-.75-.77-1-1.27-.25-.5-.37-1.07-.37-1.72s.13-1.21.38-1.71c.25-.5.59-.92,1.01-1.26.42-.34.9-.6,1.43-.77.54-.18,1.09-.26,1.65-.26s1.12.08,1.66.25c.54.17,1.02.41,1.43.75s.75.75,1,1.24c.25.5.38,1.07.38,1.72ZM72.87,42.32c0-.42-.08-.78-.25-1.09-.17-.31-.38-.56-.66-.76-.27-.2-.58-.35-.92-.44-.35-.09-.7-.14-1.06-.14s-.73.05-1.07.15c-.34.1-.65.25-.92.45-.27.2-.48.46-.65.77-.17.31-.25.68-.25,1.11s.08.8.25,1.11c.16.31.38.57.66.77.27.2.58.36.92.45.34.1.7.15,1.07.15s.71-.06,1.05-.17c.34-.11.65-.28.92-.49.27-.21.49-.48.66-.8.16-.32.25-.68.25-1.09Z"/>
    <path class="cls-1" d="M83.21,43.88c.09.16.18.28.29.37s.22.15.34.2c.12.04.23.07.34.09.11.01.21.02.3.02h.53v1.61h-.66c-.19,0-.39,0-.58-.03-.19-.02-.38-.07-.56-.15-.18-.08-.36-.2-.54-.36-.18-.16-.35-.38-.53-.66l-1.17-1.9h-.1c-.29,0-.54,0-.74.02-.2.01-.38.04-.53.08s-.29.09-.42.14c-.13.05-.28.12-.43.2v2.66h-1.53v-7.57h4.88c.35,0,.67.06.96.17s.54.27.75.48c.21.21.38.45.5.73.12.28.17.58.17.92,0,.59-.15,1.06-.45,1.42-.3.36-.73.63-1.28.79l.47.79ZM82.1,41.56c.22,0,.42-.06.59-.18.17-.12.26-.3.26-.55,0-.17-.03-.3-.1-.39-.07-.1-.15-.17-.26-.22-.1-.05-.22-.08-.36-.1s-.27-.02-.39-.02h-3.08v1.9c.29-.17.62-.28.97-.34.35-.06.74-.1,1.15-.1h1.23Z"/>
    <path class="cls-1" d="M89.42,44.64h4.75v1.52h-6.24v-7.57h5.96v1.5h-4.47v1.84c.33-.19.7-.32,1.1-.36.4-.05.83-.07,1.26-.07h1.11v1.5h-1.11c-.35,0-.64,0-.87.02-.23.01-.43.04-.59.07-.17.03-.32.07-.45.13-.14.06-.29.13-.45.22v1.2Z"/>
    <path class="cls-1" d="M101.8,40.46c-.29-.24-.63-.41-1.01-.51-.38-.1-.79-.15-1.23-.15-.18,0-.37.02-.55.07-.18.04-.34.1-.49.18-.15.07-.26.16-.36.26-.09.1-.14.21-.14.31,0,.12.02.22.05.31.03.09.11.17.22.23.11.06.28.11.5.15.22.04.51.06.88.06.8,0,1.44.06,1.93.19.49.13.87.3,1.13.51.26.21.44.46.52.75.09.28.13.57.13.88,0,.46-.1.85-.29,1.19-.19.34-.46.61-.81.83-.35.22-.75.39-1.22.5-.47.11-.97.17-1.5.17-.67,0-1.31-.14-1.91-.43-.6-.29-1.11-.68-1.53-1.18l1.08-1.1c.12.12.24.25.37.39s.29.28.47.41c.18.13.39.23.64.31.24.08.53.12.88.12.7,0,1.27-.1,1.69-.31.43-.2.64-.51.64-.92,0-.34-.19-.56-.58-.67-.38-.11-.97-.16-1.76-.16-.46,0-.88-.04-1.26-.12-.38-.08-.71-.21-.99-.39-.28-.18-.49-.41-.65-.7-.16-.29-.23-.64-.23-1.04,0-.34.09-.65.26-.93.17-.28.4-.52.68-.72.28-.2.61-.35.99-.46.38-.11.78-.16,1.2-.16.55,0,1.09.06,1.62.19.53.13,1.07.38,1.62.76l-1.01,1.17Z"/>
  </g>
  <g>
    <g>
      <path class="cls-2" d="M72.27,9.05c.17.89.34,1.78.51,2.69-2.9.08-5.74.15-8.59.22-1.05.03-2.1.09-3.15.04-.46-.03-.9-.31-1.31-.61-2.49-.13-3.44,1.11-2.62,3.31,4,.14,5.94,1.21,6.71,3.78-5.15.97-10.3,1.95-15.45,2.92-.45-2.45,1.28-4.58,5.09-6.04-.5-.86-.98-1.69-1.43-2.46-3.64.89-5.75,3.64-5.61,7.13.03.71-.16,1.25-.93,1.34-.29.03-.51-.01-.68-.12.82,2.95,2.5,5.54,4.76,7.47-.36-1.87-.71-3.74-1.06-5.6l15.76-2.98c.66,3.51,1.33,7.05,2.01,10.61,4.95-2.5,8.36-7.64,8.36-13.57,0-2.99-.87-5.78-2.37-8.14Z"/>
      <path class="cls-2" d="M47.1,13.2c1.24-1.01,2.76-1.7,4.22-2.38.72-.34,1.06-.64.85-1.44-.26-1,.22-1.51,1.2-1.63.29-.04.57-.1.86-.16.93-.21,1.51.13,1.61,1.09.09.84.5,1.01,1.26.81.73-.19,1.48-.29,2.32-.45-.31-.97.31-1.14.96-1.37,2.62-.94,5.23-1.89,7.87-2.86-2.48-1.77-5.52-2.81-8.8-2.81-8.39,0-15.19,6.8-15.19,15.19,0,.38.02.76.05,1.14.21-2.02,1.13-3.77,2.8-5.13Z"/>
      <path class="cls-2" d="M54.2,10.14c-.94.19-1.53,1.08-1.33,2.02.2.94,1.1,1.51,2.04,1.3.88-.2,1.45-1.07,1.29-1.96-.17-.93-1.07-1.54-2-1.36Z"/>
    </g>
    <path class="cls-1" d="M59.44,34.37c-9.48,0-17.18-7.71-17.18-17.19S49.96,0,59.44,0s17.19,7.71,17.19,17.18-7.71,17.19-17.19,17.19ZM59.44.69c-9.09,0-16.49,7.4-16.49,16.49s7.4,16.49,16.49,16.49,16.49-7.4,16.49-16.49S68.53.69,59.44.69Z"/>
  </g>
</svg>